<?xml version="1.0" encoding="UTF-8"?>
<svg id="Layer_1" data-name="Layer 1" xmlns="http://www.w3.org/2000/svg" viewBox="0 0 210.789 38.42">
  <defs>
    <style>
      .cls-1 {
        fill: #bd7117;
      }
    </style>
  </defs>
  <g>
    <path class="cls-1" d="m53.049,33.166c.084.592.063,1.076-.063,1.456-.296,1.056-1.266,1.984-2.912,2.786-1.393.676-2.638,1.013-3.735,1.013-1.604,0-2.701-.633-3.292-1.899-.38-.886-.813-2.374-1.298-4.463-.486-2.089-.855-5.328-1.108-5.92l-.443-1.203c-1.182,1.055-2.94,3.545-5.514,6.458-1.562,1.815-3.124,3.63-4.685,5.444-1.013,1.056-2.448,1.583-4.305,1.583-2.321,0-4.136-.633-5.444-1.899-.549-.548-1.161-2.659-1.836-6.33-.422-2.406-.965-5.339-1.386-7.787-1.351,1.984-2.997,4.664-4.938,8.039-2.237,3.841-3.461,5.93-3.672,6.267-.718,1.139-2.089,1.709-4.115,1.709-.971,0-1.857-.231-2.659-.696-.97-.548-1.519-1.308-1.646-2.279v-.633c.253-1.139,2.5-5.476,6.742-13.009,4.241-7.533,6.868-11.869,7.881-13.009,1.73-1.983,3.672-2.975,5.824-2.975,2.237,0,3.672,1.013,4.305,3.038.295.845.78,3.292,1.456,7.343.801,4.643,1.477,8.125,2.026,10.445,1.223-1.223,2.774-3.007,4.653-5.349,1.877-2.342,2.964-3.661,3.26-3.957,2.152-2.067,4.473-3.102,6.964-3.102.97,0,1.814.212,2.532.633,1.139.676,2.616,3.187,4.431,7.533,1.73,4.051,2.722,8.906,2.975,10.762Z"/>
    <circle class="cls-1" cx="34.916" cy="5.819" r="5.819"/>
  </g>
  <g>
    <path class="cls-1" d="m66.075,30.245V8.331h4.461l8.531,14.057-1.832.031,8.14-14.088h4.43v21.914h-4.493l.078-15.935.83.297-6.699,11.317h-3.162l-6.903-11.317.783-.297.079,15.935h-4.242Z"/>
    <path class="cls-1" d="m100.872,30.715c-1.43,0-2.612-.281-3.545-.845-.934-.563-1.631-1.336-2.09-2.317-.459-.98-.688-2.092-.688-3.334v-9.783h4.571v9.047c0,.938.258,1.686.774,2.238.517.553,1.26.829,2.231.829.626,0,1.179-.138,1.659-.414s.853-.666,1.119-1.167c.266-.5.399-1.08.399-1.737v-8.796h4.571v15.809h-3.976v-1.737c-.543.626-1.213,1.15-2.012,1.573s-1.803.634-3.013.634Z"/>
    <path class="cls-1" d="m114.772,30.245V8.331h8.688c1.586,0,2.972.264,4.156.791,1.185.527,2.098,1.286,2.74,2.277.642.992.962,2.176.962,3.553,0,1.085-.214,2.038-.642,2.857-.428.819-1.015,1.5-1.761,2.043s-1.604.934-2.575,1.173l6.136,9.22h-5.526l-5.275-8.327h-2.27v8.327h-4.633Zm4.633-12.068h3.444c1.189,0,2.121-.243,2.794-.728.673-.485,1.01-1.224,1.01-2.215,0-1.022-.311-1.79-.932-2.301-.621-.511-1.526-.767-2.716-.767h-3.6v6.011Z"/>
    <path class="cls-1" d="m143.026,30.715c-1.701,0-3.209-.381-4.524-1.143-1.314-.762-2.345-1.776-3.091-3.045-.746-1.268-1.119-2.663-1.119-4.187,0-1.117.214-2.178.642-3.186.428-1.007,1.033-1.899,1.815-2.677.783-.777,1.706-1.391,2.771-1.839,1.064-.448,2.233-.673,3.507-.673,1.701,0,3.206.381,4.516,1.143s2.338,1.777,3.084,3.044c.746,1.268,1.119,2.664,1.119,4.188,0,1.105-.214,2.165-.642,3.178-.428,1.012-1.031,1.907-1.809,2.684-.777.778-1.698,1.392-2.763,1.84s-2.233.673-3.506.673Zm0-3.96c.804,0,1.523-.181,2.16-.54.637-.36,1.137-.871,1.503-1.534.365-.663.548-1.442.548-2.34,0-.908-.181-1.69-.54-2.348-.36-.657-.858-1.166-1.495-1.526-.637-.36-1.362-.54-2.176-.54s-1.542.18-2.184.54c-.642.36-1.143.869-1.503,1.526-.36.658-.54,1.44-.54,2.348s.183,1.69.548,2.348.866,1.166,1.503,1.526c.637.359,1.361.54,2.176.54Z"/>
    <path class="cls-1" d="m161.059,30.715c-1.431,0-2.612-.281-3.546-.845-.935-.563-1.631-1.336-2.09-2.317-.459-.98-.688-2.092-.688-3.334v-9.783h4.57v9.047c0,.938.259,1.686.775,2.238s1.26.829,2.23.829c.626,0,1.179-.138,1.659-.414.479-.276.853-.666,1.119-1.167.266-.5.399-1.08.399-1.737v-8.796h4.57v15.809h-3.976v-1.737c-.543.626-1.213,1.15-2.012,1.573-.798.423-1.803.634-3.013.634Z"/>
    <path class="cls-1" d="m174.505,30.245v-15.809h4.571v1.784c.604-.793,1.322-1.367,2.152-1.722.829-.355,1.698-.532,2.605-.532,1.472,0,2.685.29,3.64.869s1.664,1.328,2.129,2.246c.464.918.696,1.884.696,2.896v10.268h-4.57v-8.844c0-1.001-.279-1.8-.838-2.395-.558-.595-1.364-.892-2.418-.892-.668,0-1.258.149-1.769.446-.512.297-.911.712-1.198,1.244s-.43,1.148-.43,1.847v8.594h-4.571Z"/>
    <path class="cls-1" d="m201.177,30.715c-1.523,0-2.878-.353-4.062-1.057-1.185-.704-2.119-1.688-2.802-2.95-.684-1.263-1.025-2.719-1.025-4.367,0-1.18.195-2.275.587-3.287s.941-1.899,1.651-2.661c.709-.762,1.55-1.356,2.521-1.785.97-.428,2.04-.642,3.208-.642,1.284,0,2.424.253,3.421.759.996.506,1.854,1.244,2.575,2.215l-1.033,1.049V7.705h4.57v22.54h-3.976v-4.007l.626,1.033c-.491,1.012-1.268,1.839-2.332,2.48-1.064.643-2.375.963-3.93.963Zm.846-3.96c.804,0,1.523-.181,2.16-.54.637-.36,1.137-.869,1.503-1.526.365-.657.548-1.44.548-2.348s-.181-1.69-.54-2.348c-.36-.657-.858-1.166-1.495-1.526-.637-.36-1.362-.54-2.176-.54s-1.539.18-2.176.54c-.637.36-1.138.869-1.503,1.526-.365.658-.548,1.44-.548,2.348s.183,1.69.548,2.348.866,1.166,1.503,1.526c.637.359,1.361.54,2.176.54Z"/>
  </g>
</svg>