<svg width="63" height="63" viewBox="0 0 63 63" fill="none" xmlns="http://www.w3.org/2000/svg">
<rect width="62.8033" height="62.8033" rx="31.4016" fill="#DDF472"/>
<g clip-path="url(#clip0_557_2802)">
<path d="M40.4714 42.4443H36.6407C35.9932 42.4443 35.4704 42.9671 35.4704 43.6146C35.4704 44.2621 35.9932 44.7849 36.6407 44.7849H40.4714C41.1189 44.7849 41.6416 44.2621 41.6416 43.6146C41.6416 42.9671 41.1189 42.4443 40.4714 42.4443ZM31.632 42.4443H18.3573C17.7097 42.4443 17.187 42.9671 17.187 43.6146C17.187 44.2621 17.7097 44.7849 18.3573 44.7849H31.632C32.2795 44.7849 32.8022 44.2621 32.8022 43.6146C32.8022 42.9671 32.2795 42.4443 31.632 42.4443Z" fill="#BD7117"/>
<path d="M45.318 17.7837L47.8749 20.3406L45.6131 22.6025L43.0562 20.0455L45.318 17.7837Z" fill="#FFB89A"/>
<path d="M41.6299 50.0002H20.257C18.1622 50.0002 16.4575 48.2955 16.4575 46.2007V19.5304C16.4575 17.4356 18.1622 15.731 20.257 15.731H36.6095C37.257 15.731 37.7797 16.2537 37.7797 16.9012C37.7797 17.5488 37.257 18.0715 36.6095 18.0715H20.257C19.4534 18.0715 18.798 18.7268 18.798 19.5304V46.2007C18.798 47.0043 19.4534 47.6597 20.257 47.6597H41.6299C42.4335 47.6597 43.0888 47.0043 43.0888 46.2007V30.7923C43.0888 30.1447 43.6115 29.622 44.2591 29.622C44.9066 29.622 45.4293 30.1447 45.4293 30.7923V46.2046C45.4293 48.2955 43.7247 50.0002 41.6299 50.0002Z" fill="#45484C"/>
<path d="M48.027 17.4745L46.4979 15.9453C45.5617 15.0091 43.9584 15.091 42.9208 16.1287L28.9829 30.0704L26.1548 37.8176L33.9019 34.9933L47.8437 21.0516C48.3157 20.5796 48.6082 19.971 48.6668 19.3352C48.737 18.6291 48.499 17.9504 48.027 17.4745ZM32.6146 32.9688L30.0752 33.8933L30.9997 31.3538L41.3253 21.0282L42.9208 22.6548L32.6146 32.9688ZM46.1897 19.3976L44.5786 21.0087L42.9832 19.382L44.5786 17.7865C44.6996 17.6656 44.8205 17.6344 44.8751 17.6344L46.3418 19.1011C46.3379 19.1518 46.3067 19.2767 46.1897 19.3976Z" fill="#45484C"/>
</g>
<defs>
<clipPath id="clip0_557_2802">
<rect width="37" height="37" fill="white" transform="translate(12.9019 12.9019)"/>
</clipPath>
</defs>
</svg>
