<svg width="60" height="60" viewBox="0 0 60 60" fill="none" xmlns="http://www.w3.org/2000/svg">
<rect width="60" height="60" rx="30" fill="#DDF472"/>
<path d="M16.3159 45.7451V41.7451M16.3159 27.2451C16.3159 27.2451 16.3159 29.683 16.3159 31.2451M16.3159 31.2451C17.6828 30.4641 18.4221 29.9769 19.8159 29.2451C20.5891 28.8392 21.8159 28.2451 21.8159 28.2451C21.8159 28.2451 27.9875 29.2076 28.8159 32.2451C29.1242 33.3754 28.8159 35.2451 28.8159 35.2451C28.8159 35.2451 27.2239 36.1537 26.3159 35.7451M16.3159 31.2451C16.3159 35.3456 16.3159 41.7451 16.3159 41.7451M26.3159 35.7451C24.5586 35.1593 21.8159 34.2451 21.8159 34.2451M26.3159 35.7451C27.2922 36.5262 27.6194 37.3825 28.8159 37.7451C29.7503 38.0283 30.3586 37.9366 31.3159 37.7451C32.8596 37.4364 33.4635 36.5509 34.8159 35.7451C37.0031 34.442 40.3159 32.2451 40.3159 32.2451C40.3159 32.2451 42.4875 31.4167 43.3159 32.2451C44.1443 33.0735 43.3159 35.2451 43.3159 35.2451C43.3159 35.2451 39.0239 38.8723 36.3159 41.2451C34.5475 42.7947 34.0224 44.4329 31.8159 45.2451C30.8816 45.589 30.3094 45.6798 29.3159 45.7451C25.6552 45.9856 20.8159 41.7451 20.8159 41.7451H16.3159" stroke="#131134" stroke-width="2.5"/>
<path d="M33.5617 29.5178V16.7906H34.377V29.5178H33.5617ZM35.7243 20.9916C35.6845 20.5905 35.5138 20.279 35.2122 20.0569C34.9106 19.8348 34.5013 19.7238 33.9842 19.7238C33.6329 19.7238 33.3363 19.7735 33.0943 19.873C32.8524 19.9691 32.6668 20.1033 32.5375 20.2757C32.4116 20.448 32.3486 20.6436 32.3486 20.8623C32.342 21.0446 32.3801 21.2037 32.4629 21.3396C32.5491 21.4755 32.6668 21.5931 32.8159 21.6926C32.9651 21.7887 33.1374 21.8732 33.333 21.9461C33.5285 22.0157 33.7373 22.0754 33.9594 22.1251L34.8742 22.3438C35.3183 22.4433 35.726 22.5758 36.0972 22.7416C36.4684 22.9073 36.7899 23.1111 37.0617 23.3531C37.3334 23.595 37.5439 23.8801 37.693 24.2082C37.8455 24.5363 37.9234 24.9125 37.9267 25.3367C37.9234 25.9598 37.7643 26.5001 37.4494 26.9575C37.1379 27.4115 36.6871 27.7645 36.0972 28.0164C35.5105 28.265 34.8029 28.3893 33.9743 28.3893C33.1523 28.3893 32.4364 28.2633 31.8266 28.0115C31.22 27.7596 30.7461 27.3867 30.4047 26.8928C30.0666 26.3957 29.8893 25.7809 29.8727 25.0484H31.9558C31.979 25.3898 32.0768 25.6748 32.2492 25.9035C32.4248 26.1289 32.6585 26.2996 32.9502 26.4156C33.2451 26.5283 33.5782 26.5846 33.9494 26.5846C34.314 26.5846 34.6305 26.5316 34.899 26.4255C35.1708 26.3195 35.3813 26.172 35.5304 25.983C35.6796 25.7941 35.7541 25.577 35.7541 25.3318C35.7541 25.1031 35.6862 24.9108 35.5503 24.7551C35.4177 24.5993 35.2222 24.4667 34.9636 24.3573C34.7084 24.248 34.3952 24.1485 34.024 24.059L32.9153 23.7806C32.0569 23.5718 31.3791 23.2454 30.882 22.8012C30.3848 22.3571 30.1379 21.7588 30.1412 21.0065C30.1379 20.39 30.302 19.8514 30.6334 19.3907C30.9681 18.93 31.4272 18.5704 32.0105 18.3119C32.5939 18.0534 33.2567 17.9241 33.9992 17.9241C34.7548 17.9241 35.4144 18.0534 35.9778 18.3119C36.5446 18.5704 36.9854 18.93 37.3003 19.3907C37.6152 19.8514 37.7776 20.385 37.7875 20.9916H35.7243Z" fill="black"/>
</svg>
