<svg width="63" height="63" viewBox="0 0 63 63" fill="none" xmlns="http://www.w3.org/2000/svg">
<rect width="62.8033" height="62.8033" rx="31.4016" fill="#DDF472"/>
<g clip-path="url(#clip0_562_2814)">
<path fill-rule="evenodd" clip-rule="evenodd" d="M16.3819 31.4017C14.9194 31.4017 13.7319 30.2917 13.7319 28.9267C13.7319 27.5617 14.9194 26.4492 16.3819 26.4492C17.4644 26.4492 18.4219 27.0567 18.8344 27.9967C19.1044 28.6192 19.7869 28.8842 20.3544 28.5892C20.9294 28.2967 21.1719 27.5592 20.9019 26.9392C20.1219 25.1342 18.3469 23.9692 16.3794 23.9692C13.6544 23.9692 11.4419 26.1967 11.4419 28.9267C11.4419 31.6617 13.6544 33.8792 16.3944 33.8792C17.8719 33.8792 19.0619 34.9992 19.0619 36.3717C19.0619 37.7392 17.8694 38.8567 16.3944 38.8567C15.2994 38.8567 14.3319 38.2417 13.9194 37.2967C13.6544 36.6717 12.9669 36.4067 12.3994 36.6967C11.8244 36.9867 11.5819 37.7292 11.8494 38.3467C12.6344 40.1667 14.4169 41.3367 16.3944 41.3367C19.1269 41.3367 21.3519 39.1067 21.3519 36.3717C21.3569 33.6317 19.1319 31.4017 16.3819 31.4017Z" fill="#434343"/>
<path fill-rule="evenodd" clip-rule="evenodd" d="M43.8495 31.3718C42.4045 31.3718 41.227 30.2643 41.227 28.9043C41.227 27.5468 42.4045 26.4393 43.8495 26.4393C44.927 26.4393 45.882 27.0443 46.2895 27.9818C46.5545 28.5993 47.2345 28.8668 47.7995 28.5718C48.3695 28.2818 48.607 27.5443 48.3395 26.9243C47.5645 25.1293 45.802 23.9668 43.852 23.9668C41.152 23.9668 38.9595 26.1843 38.9595 28.9043C38.9595 31.6293 41.152 33.8393 43.8745 33.8393C45.337 33.8393 46.522 34.9543 46.522 36.3168C46.522 37.6843 45.337 38.7943 43.8745 38.7943C42.7895 38.7943 41.827 38.1843 41.422 37.2393C41.152 36.6218 40.4795 36.3568 39.9095 36.6468C39.342 36.9343 39.102 37.6718 39.367 38.2868C40.147 40.0993 41.917 41.2643 43.877 41.2643C46.5895 41.2643 48.797 39.0443 48.797 36.3168C48.7895 33.5918 46.582 31.3718 43.8495 31.3718Z" fill="#434343"/>
<path fill-rule="evenodd" clip-rule="evenodd" d="M30.2242 23.9668H30.0392C27.5292 23.9668 23.9292 25.9818 23.9292 28.4543V36.8368C23.9292 39.3143 27.5292 41.3268 30.0392 41.3268H30.2242C32.7367 41.3268 36.3342 39.3143 36.3342 36.8368V28.4543C36.3367 25.9818 32.7367 23.9668 30.2242 23.9668ZM33.9892 36.2843C33.9892 37.8243 31.7517 39.0768 30.1892 39.0768H30.0717C28.5117 39.0768 26.2692 37.8243 26.2692 36.2843V29.0393C26.2692 27.5018 28.5117 26.2468 30.0717 26.2468H30.1892C31.7517 26.2468 33.9892 27.5018 33.9892 29.0393V36.2843Z" fill="#434343"/>
</g>
<defs>
<clipPath id="clip0_562_2814">
<rect width="40" height="40" fill="white" transform="translate(11.4019 11.4019)"/>
</clipPath>
</defs>
</svg>
